# xmcd CD database file
#
# Track frame offsets:
#	150
#	21973
#	46802
#	63325
#	82237
#	108399
#	126946
#	148379
#	172020
#	189496
#	212249
#
# Disc length: 3109 seconds
#
# Revision: 0
# Processed by: cddbd v1.5.1PL0 Copyright (c) Steve Scherf et al.
# Submitted via: CDex 1.51
#
DISCID=a80c230b
DTITLE=Over The Edge - Over The Edge
DYEAR=2004
DGENRE=Rock
TTITLE0=Over The Edge
TTITLE1=One World
TTITLE2=Thief
TTITLE3=Surrender
TTITLE4=Eyes Wide Open
TTITLE5=Forest For The Trees
TTITLE6=The Man In Between
TTITLE7=Cover Me
TTITLE8=Turn Away
TTITLE9=Glory Day
TTITLE10=Cover Me
EXTD=YEAR: 2004
EXTT0=
EXTT1=
EXTT2=
EXTT3=
EXTT4=
EXTT5=
EXTT6=
EXTT7=
EXTT8=
EXTT9=
EXTT10=
PLAYORDER=
